<?xml version="1.0" encoding="UTF-8" standalone="no"?>
<!DOCTYPE svg PUBLIC "-//W3C//DTD SVG 1.1//EN"
 "http://www.w3.org/Graphics/SVG/1.1/DTD/svg11.dtd">
<!-- Generated by graphviz version 2.50.0 (20211204.2007)
 -->
<!-- Title: G Pages: 1 -->
<svg width="824pt" height="127pt"
 viewBox="0.00 0.00 824.00 127.00" xmlns="http://www.w3.org/2000/svg" xmlns:xlink="http://www.w3.org/1999/xlink">
<g id="graph0" class="graph" transform="scale(1 1) rotate(0) translate(4 123)">
<title>G</title>
<polygon fill="white" stroke="transparent" points="-4,4 -4,-123 820,-123 820,4 -4,4"/>
<!-- 13339484298157546846 -->
<g id="node1" class="node">
<title>13339484298157546846</title>
<polygon fill="none" stroke="black" points="318.5,-27.5 318.5,-63.5 505.5,-63.5 505.5,-27.5 318.5,-27.5"/>
<text text-anchor="middle" x="328.5" y="-41.8" font-family="Times,serif" font-size="14.00"> </text>
<polyline fill="none" stroke="black" points="338.5,-27.5 338.5,-63.5 "/>
<text text-anchor="middle" x="381" y="-41.8" font-family="Times,serif" font-size="14.00">data &#45;6.0000</text>
<polyline fill="none" stroke="black" points="423.5,-27.5 423.5,-63.5 "/>
<text text-anchor="middle" x="464.5" y="-41.8" font-family="Times,serif" font-size="14.00">grad 0.0000</text>
</g>
<!-- 11520276875817431889+ -->
<g id="node7" class="node">
<title>11520276875817431889+</title>
<ellipse fill="none" stroke="black" cx="571" cy="-72.5" rx="27" ry="18"/>
<text text-anchor="middle" x="571" y="-68.8" font-family="Times,serif" font-size="14.00">+</text>
</g>
<!-- 13339484298157546846&#45;&gt;11520276875817431889+ -->
<g id="edge3" class="edge">
<title>13339484298157546846&#45;&gt;11520276875817431889+</title>
<path fill="none" stroke="black" d="M505.69,-61.44C516,-63.21 525.97,-64.93 534.85,-66.46"/>
<polygon fill="black" stroke="black" points="534.3,-69.91 544.75,-68.16 535.49,-63.01 534.3,-69.91"/>
</g>
<!-- 13339484298157546846* -->
<g id="node2" class="node">
<title>13339484298157546846*</title>
<ellipse fill="none" stroke="black" cx="253" cy="-45.5" rx="27" ry="18"/>
<text text-anchor="middle" x="253" y="-41.8" font-family="Times,serif" font-size="14.00">*</text>
</g>
<!-- 13339484298157546846*&#45;&gt;13339484298157546846 -->
<g id="edge1" class="edge">
<title>13339484298157546846*&#45;&gt;13339484298157546846</title>
<path fill="none" stroke="black" d="M280.28,-45.5C288.4,-45.5 297.88,-45.5 307.96,-45.5"/>
<polygon fill="black" stroke="black" points="308.22,-49 318.22,-45.5 308.22,-42 308.22,-49"/>
</g>
<!-- 4070147688753461490 -->
<g id="node3" class="node">
<title>4070147688753461490</title>
<polygon fill="none" stroke="black" points="2.5,-55.5 2.5,-91.5 187.5,-91.5 187.5,-55.5 2.5,-55.5"/>
<text text-anchor="middle" x="14" y="-69.8" font-family="Times,serif" font-size="14.00">a</text>
<polyline fill="none" stroke="black" points="25.5,-55.5 25.5,-91.5 "/>
<text text-anchor="middle" x="65.5" y="-69.8" font-family="Times,serif" font-size="14.00">data 2.0000</text>
<polyline fill="none" stroke="black" points="105.5,-55.5 105.5,-91.5 "/>
<text text-anchor="middle" x="146.5" y="-69.8" font-family="Times,serif" font-size="14.00">grad 0.0000</text>
</g>
<!-- 4070147688753461490&#45;&gt;13339484298157546846* -->
<g id="edge4" class="edge">
<title>4070147688753461490&#45;&gt;13339484298157546846*</title>
<path fill="none" stroke="black" d="M187.65,-57.05C197.94,-55.2 207.91,-53.41 216.81,-51.82"/>
<polygon fill="black" stroke="black" points="217.48,-55.25 226.71,-50.04 216.25,-48.36 217.48,-55.25"/>
</g>
<!-- 2994194503791842565 -->
<g id="node4" class="node">
<title>2994194503791842565</title>
<polygon fill="none" stroke="black" points="0,-0.5 0,-36.5 190,-36.5 190,-0.5 0,-0.5"/>
<text text-anchor="middle" x="11.5" y="-14.8" font-family="Times,serif" font-size="14.00">b</text>
<polyline fill="none" stroke="black" points="23,-0.5 23,-36.5 "/>
<text text-anchor="middle" x="65.5" y="-14.8" font-family="Times,serif" font-size="14.00">data &#45;3.0000</text>
<polyline fill="none" stroke="black" points="108,-0.5 108,-36.5 "/>
<text text-anchor="middle" x="149" y="-14.8" font-family="Times,serif" font-size="14.00">grad 0.0000</text>
</g>
<!-- 2994194503791842565&#45;&gt;13339484298157546846* -->
<g id="edge6" class="edge">
<title>2994194503791842565&#45;&gt;13339484298157546846*</title>
<path fill="none" stroke="black" d="M190.34,-34.83C199.62,-36.44 208.58,-37.99 216.66,-39.38"/>
<polygon fill="black" stroke="black" points="216.27,-42.87 226.72,-41.12 217.46,-35.97 216.27,-42.87"/>
</g>
<!-- 3913344892396682458 -->
<g id="node5" class="node">
<title>3913344892396682458</title>
<polygon fill="none" stroke="black" points="316,-82.5 316,-118.5 508,-118.5 508,-82.5 316,-82.5"/>
<text text-anchor="middle" x="327.5" y="-96.8" font-family="Times,serif" font-size="14.00">c</text>
<polyline fill="none" stroke="black" points="339,-82.5 339,-118.5 "/>
<text text-anchor="middle" x="382.5" y="-96.8" font-family="Times,serif" font-size="14.00">data 10.0000</text>
<polyline fill="none" stroke="black" points="426,-82.5 426,-118.5 "/>
<text text-anchor="middle" x="467" y="-96.8" font-family="Times,serif" font-size="14.00">grad 0.0000</text>
</g>
<!-- 3913344892396682458&#45;&gt;11520276875817431889+ -->
<g id="edge5" class="edge">
<title>3913344892396682458&#45;&gt;11520276875817431889+</title>
<path fill="none" stroke="black" d="M508.4,-83.49C517.69,-81.83 526.64,-80.23 534.71,-78.79"/>
<polygon fill="black" stroke="black" points="535.53,-82.2 544.76,-77 534.31,-75.31 535.53,-82.2"/>
</g>
<!-- 11520276875817431889 -->
<g id="node6" class="node">
<title>11520276875817431889</title>
<polygon fill="none" stroke="black" points="634,-54.5 634,-90.5 816,-90.5 816,-54.5 634,-54.5"/>
<text text-anchor="middle" x="644" y="-68.8" font-family="Times,serif" font-size="14.00"> </text>
<polyline fill="none" stroke="black" points="654,-54.5 654,-90.5 "/>
<text text-anchor="middle" x="694" y="-68.8" font-family="Times,serif" font-size="14.00">data 4.0000</text>
<polyline fill="none" stroke="black" points="734,-54.5 734,-90.5 "/>
<text text-anchor="middle" x="775" y="-68.8" font-family="Times,serif" font-size="14.00">grad 0.0000</text>
</g>
<!-- 11520276875817431889+&#45;&gt;11520276875817431889 -->
<g id="edge2" class="edge">
<title>11520276875817431889+&#45;&gt;11520276875817431889</title>
<path fill="none" stroke="black" d="M598.13,-72.5C605.67,-72.5 614.39,-72.5 623.64,-72.5"/>
<polygon fill="black" stroke="black" points="623.87,-76 633.87,-72.5 623.87,-69 623.87,-76"/>
</g>
</g>
</svg>
